<mxfile host="app.diagrams.net" agent="Mozilla/5.0 (Windows NT 10.0; Win64; x64) AppleWebKit/537.36 (KHTML, like Gecko) Chrome/138.0.0.0 Safari/537.36 Edg/138.0.0.0" version="28.0.6">
  <diagram name="第 1 页" id="p7rkiarqeRuFziZ07Rb5">
    <mxGraphModel dx="1418" dy="786" grid="1" gridSize="10" guides="1" tooltips="1" connect="1" arrows="1" fold="1" page="1" pageScale="1" pageWidth="827" pageHeight="1169" math="0" shadow="0">
      <root>
        <mxCell id="0" />
        <mxCell id="1" parent="0" />
        <mxCell id="-sYIV18S88BisDgLJzkE-1" value="中心药房" style="shape=umlLifeline;perimeter=lifelinePerimeter;whiteSpace=wrap;html=1;container=1;collapsible=0;recursiveResize=0;outlineConnect=0;rounded=1;shadow=0;comic=0;labelBackgroundColor=none;strokeWidth=1;fontFamily=Verdana;fontSize=12;align=center;" vertex="1" parent="1">
          <mxGeometry x="800" y="110" width="100" height="580" as="geometry" />
        </mxCell>
        <mxCell id="-sYIV18S88BisDgLJzkE-2" value="" style="html=1;points=[];perimeter=orthogonalPerimeter;rounded=0;shadow=0;comic=0;labelBackgroundColor=none;strokeWidth=1;fontFamily=Verdana;fontSize=12;align=center;" vertex="1" parent="-sYIV18S88BisDgLJzkE-1">
          <mxGeometry x="45" y="40" width="10" height="540" as="geometry" />
        </mxCell>
        <mxCell id="-sYIV18S88BisDgLJzkE-3" value="互联网医馆" style="shape=umlLifeline;perimeter=lifelinePerimeter;whiteSpace=wrap;html=1;container=1;collapsible=0;recursiveResize=0;outlineConnect=0;rounded=1;shadow=0;comic=0;labelBackgroundColor=none;strokeWidth=1;fontFamily=Verdana;fontSize=12;align=center;" vertex="1" parent="1">
          <mxGeometry x="40" y="110" width="100" height="580" as="geometry" />
        </mxCell>
        <mxCell id="-sYIV18S88BisDgLJzkE-4" value="" style="html=1;points=[];perimeter=orthogonalPerimeter;rounded=0;shadow=0;comic=0;labelBackgroundColor=none;strokeWidth=1;fontFamily=Verdana;fontSize=12;align=center;" vertex="1" parent="-sYIV18S88BisDgLJzkE-3">
          <mxGeometry x="45" y="40" width="10" height="540" as="geometry" />
        </mxCell>
        <mxCell id="-sYIV18S88BisDgLJzkE-5" value="【申请退款退货、申请退款不退货】：生成退货单时，1、退换货状态同步，IsAdd:true，ReturnExchangeType：1退货 2换货；&lt;div&gt;2、退货单同步；&lt;/div&gt;" style="html=1;verticalAlign=bottom;endArrow=block;labelBackgroundColor=none;fontFamily=Verdana;fontSize=12;edgeStyle=elbowEdgeStyle;elbow=vertical;" edge="1" parent="1">
          <mxGeometry x="-0.0007" relative="1" as="geometry">
            <mxPoint x="95" y="230" as="sourcePoint" />
            <mxPoint x="849.5" y="230" as="targetPoint" />
            <Array as="points">
              <mxPoint x="490" y="230" />
            </Array>
            <mxPoint as="offset" />
          </mxGeometry>
        </mxCell>
        <mxCell id="-sYIV18S88BisDgLJzkE-6" value="&lt;font style=&quot;font-size: 18px;&quot;&gt;&lt;b&gt;互联网医馆即可退款流程&lt;/b&gt;&lt;/font&gt;" style="shape=note;whiteSpace=wrap;html=1;size=14;verticalAlign=top;align=left;spacingTop=-6;rounded=0;shadow=0;comic=0;labelBackgroundColor=none;strokeWidth=1;fontFamily=Verdana;fontSize=12" vertex="1" parent="1">
          <mxGeometry x="260" y="40" width="330" height="35" as="geometry" />
        </mxCell>
        <mxCell id="-sYIV18S88BisDgLJzkE-7" value="【退款审核】：1、退换货状态同步，IsAdd:false，ReturnExchangeType：1退货 2换货" style="html=1;verticalAlign=bottom;endArrow=block;labelBackgroundColor=none;fontFamily=Verdana;fontSize=12;edgeStyle=elbowEdgeStyle;elbow=vertical;" edge="1" parent="1">
          <mxGeometry x="0.0013" relative="1" as="geometry">
            <mxPoint x="100" y="310" as="sourcePoint" />
            <mxPoint x="855" y="310" as="targetPoint" />
            <Array as="points">
              <mxPoint x="495" y="310" />
            </Array>
            <mxPoint as="offset" />
          </mxGeometry>
        </mxCell>
        <mxCell id="-sYIV18S88BisDgLJzkE-8" value="【退药确认】：1、退换货状态同步，IsAdd:false，ReturnExchangeType：1退货 2换货" style="html=1;verticalAlign=bottom;endArrow=block;labelBackgroundColor=none;fontFamily=Verdana;fontSize=12;edgeStyle=elbowEdgeStyle;elbow=vertical;" edge="1" parent="1">
          <mxGeometry x="0.5137" y="-30" relative="1" as="geometry">
            <mxPoint x="210" y="470" as="sourcePoint" />
            <mxPoint x="89.5" y="470" as="targetPoint" />
            <Array as="points">
              <mxPoint x="850" y="470" />
            </Array>
            <mxPoint as="offset" />
          </mxGeometry>
        </mxCell>
      </root>
    </mxGraphModel>
  </diagram>
</mxfile>
